<svg width="52" height="52" viewBox="0 0 52 52" fill="none" xmlns="http://www.w3.org/2000/svg"><path d="M49.746 47.7a4.215 4.215 0 0 0-2.347-7.705h-3.685a1.568 1.568 0 0 0-1.567 1.567v8.858a1.568 1.568 0 0 0 3.135 0v-2.002h.886l2.657 3.002a1.567 1.567 0 0 0 2.649-1.563 1.568 1.568 0 0 0-.31-.527l-1.418-1.63zm-2.347-2.418H45.29V43.13h2.108a1.08 1.08 0 0 1 0 2.152zM5.69 46.974l1.356-.248A3.64 3.64 0 0 0 6.39 39.5H1.962a1.568 1.568 0 0 0 0 3.135H6.39a.507.507 0 0 1 .496.514.496.496 0 0 1-.407.496l-1.355.248a5.792 5.792 0 0 0-4.73 5.704 1.568 1.568 0 0 0 1.568 1.568h6.492a1.568 1.568 0 0 0 0-3.136H4.025c.4-.552.996-.929 1.666-1.054zM2.839 3.193h.806V10.2a1.568 1.568 0 1 0 3.135 0V1.625A1.568 1.568 0 0 0 5.212.058H2.84a1.568 1.568 0 0 0 0 3.135zM27.16 8.578h-4.366a1.568 1.568 0 0 0 0 3.136h4.366a3.702 3.702 0 0 0 3.02-5.828A3.693 3.693 0 0 0 27.16.058h-4.366a1.568 1.568 0 0 0 0 3.135h4.366a.567.567 0 0 1 .567.558.567.567 0 0 1-.567.567h-2.657a1.568 1.568 0 1 0 0 3.135h2.657a.567.567 0 1 1 0 1.125zm2.666 35.828h-.885v-3.047a1.568 1.568 0 0 0-3.136 0v3.038h-2.037v-3.038a1.568 1.568 0 1 0-3.135 0v4.605a1.568 1.568 0 0 0 1.568 1.568h3.604v2.383a1.568 1.568 0 0 0 3.136 0v-2.383h.886a1.568 1.568 0 1 0 0-3.126zM44.024 7.453h3.543a.567.567 0 1 1 0 1.125h-3.543a1.568 1.568 0 1 0 0 3.136h3.543a3.702 3.702 0 1 0 0-7.396h-1.771l.133-1.125h3.808a1.568 1.568 0 0 0 0-3.135H44.53a1.568 1.568 0 0 0-1.559 1.381l-.504 4.26a1.576 1.576 0 0 0 1.558 1.754zm-16.456 8.228a1.568 1.568 0 0 0-3.136 0v3.712a6.697 6.697 0 0 1 3.136 0V15.68zm-3.136 20.638a1.568 1.568 0 0 0 3.136 0v-3.712a6.695 6.695 0 0 1-3.136 0v3.712zM6.736 24.432v-8.75a1.568 1.568 0 1 0-3.136 0v20.637a1.568 1.568 0 1 0 3.136 0v-8.751h12.656a6.695 6.695 0 0 1 0-3.136H6.736zm38.528 3.136v8.75a1.568 1.568 0 0 0 3.136 0V15.683a1.568 1.568 0 0 0-3.136 0v8.75H32.607a6.695 6.695 0 0 1 0 3.136h12.657zM29.658 26a3.658 3.658 0 1 0-7.315 0 3.658 3.658 0 0 0 7.315 0z" fill="#FFCE1B"/></svg>