<svg width="58" height="52" viewBox="0 0 58 52" fill="none" xmlns="http://www.w3.org/2000/svg"><path d="M54.161 42a28.415 28.415 0 1 0-42.112 9.6h15.287v-4.16A1.655 1.655 0 0 1 29 45.776a1.655 1.655 0 0 1 1.664 1.664v4.16h15.287a28.608 28.608 0 0 0 8.228-9.6h-.018zM29.001 4.35a1.654 1.654 0 0 1 1.663 1.664v4.16A1.655 1.655 0 0 1 29 11.838a1.655 1.655 0 0 1-1.664-1.664v-4.16A1.655 1.655 0 0 1 29 4.35zM4.542 28.807a1.655 1.655 0 0 1 1.664-1.664h4.16a1.655 1.655 0 0 1 1.664 1.664 1.655 1.655 0 0 1-1.664 1.664h-4.16a1.655 1.655 0 0 1-1.664-1.664zm7.159 17.308a1.673 1.673 0 0 1 0-2.36l2.953-2.943a1.664 1.664 0 0 1 2.35 0 1.664 1.664 0 0 1 0 2.35l-2.944 2.953a1.673 1.673 0 0 1-2.36 0zm2.953-29.258l-2.953-2.944a1.673 1.673 0 0 1 0-2.358 1.673 1.673 0 0 1 2.359 0l2.944 2.944a1.673 1.673 0 0 1 0 2.358 1.664 1.664 0 0 1-2.35 0zm19.758 11.95a5.422 5.422 0 1 1-2.953-4.818l5.714-5.705 2.35 2.35-5.706 5.714a5.42 5.42 0 0 1 .595 2.459zm10.55 18.286l-3.968-3.968a1.664 1.664 0 0 1 0-2.35 1.664 1.664 0 0 1 2.35 0l1.573 1.564a20.7 20.7 0 0 0 4.937-11.886h-2.222a1.655 1.655 0 0 1-1.664-1.664 1.657 1.657 0 0 1 1.664-1.664h2.222a20.7 20.7 0 0 0-3.749-10.368 1.665 1.665 0 0 0-2.477-.174l-.238.229a1.664 1.664 0 0 1-2.35 0 1.673 1.673 0 0 1 0-2.36l2.789-2.788a1.673 1.673 0 0 1 2.359 0 24.238 24.238 0 0 1 0 34.286l-1.225 1.143z" fill="#FFCE1B"/></svg>