<svg width="71" height="55" viewBox="0 0 71 55" fill="none" xmlns="http://www.w3.org/2000/svg"><path opacity=".8" fill-rule="evenodd" clip-rule="evenodd" d="M52.006 4a4 4 0 0 0-4-4h-16.42a4 4 0 0 0-4 4v.14a4 4 0 0 0 4 4h4.592v5.88h-8.55a4 4 0 0 0-2.79 1.132l-5.99 5.83a4 4 0 0 0-1.205 2.65 3.992 3.992 0 0 0-3.102-1.473h-.14a4 4 0 0 0-4 4v4.593h-2.26v-4.593a4 4 0 0 0-4-4H4a4 4 0 0 0-4 4v16.42a4 4 0 0 0 4 4h.14a4 4 0 0 0 4-4v-4.592h2.261v4.593a4 4 0 0 0 4 4h.14c1.315 0 2.48-.634 3.21-1.613a4 4 0 0 0 1.057 1.88l6.024 6.023a4 4 0 0 0 2.828 1.171h18.167a4 4 0 0 0 2.829-1.171l9.64-9.641a4 4 0 0 0 1.172-2.828v-2.414h3.392v4.593a4 4 0 0 0 4 4H67a4 4 0 0 0 4-4V26.16a4 4 0 0 0-4-4h-.14a4 4 0 0 0-4 4v4.592h-3.392V18.019a4 4 0 0 0-4-4H43.414V8.14h4.592a4 4 0 0 0 4-4V4z" fill="#FFCE1B"/></svg>