<svg width="64" height="64" viewBox="0 0 64 64" fill="none" xmlns="http://www.w3.org/2000/svg"><path d="M32 0a32 32 0 1 0 0 64 32 32 0 0 0 0-64zm0 54.73a22.73 22.73 0 1 1 0-45.46 22.73 22.73 0 0 1 0 45.46z" fill="#FFCE1B"/><path d="M32 12.21A19.79 19.79 0 1 0 51.79 32 19.82 19.82 0 0 0 32 12.21zm17.25 18.53h-9.6a7.68 7.68 0 0 0-1.36-3.29l6.77-6.78a17.23 17.23 0 0 1 4.19 10.07zm-16-16a17.26 17.26 0 0 1 10.07 4.17l-6.78 6.77a7.68 7.68 0 0 0-3.29-1.36v-9.58zm-2.48 0v9.58a7.68 7.68 0 0 0-3.29 1.36l-6.78-6.77a17.26 17.26 0 0 1 10.06-4.16l.01-.01zm-11.83 5.93l6.77 6.78a7.68 7.68 0 0 0-1.36 3.29h-9.6a17.229 17.229 0 0 1 4.19-10.07zm-4.19 12.55h9.6a7.68 7.68 0 0 0 1.36 3.29l-6.79 6.8a17.17 17.17 0 0 1-4.17-10.09zm16 16a17.19 17.19 0 0 1-10.09-4.19l6.8-6.79a7.68 7.68 0 0 0 3.29 1.36v9.62zm0-12.17a5.32 5.32 0 0 1-3.88-3.88 5.2 5.2 0 0 1 .63-3.98 5.228 5.228 0 0 1 1.75-1.75 5.198 5.198 0 0 1 5.48 0 5.23 5.23 0 0 1 1.75 1.75 5.2 5.2 0 0 1 0 5.48 5.32 5.32 0 0 1-3.25 2.38 5.2 5.2 0 0 1-2.48 0zm2.48 12.17v-9.59a7.681 7.681 0 0 0 3.29-1.36l6.8 6.79a17.19 17.19 0 0 1-10.08 4.19l-.01-.03zm11.84-5.94l-6.79-6.8a7.681 7.681 0 0 0 1.36-3.29h9.6a17.17 17.17 0 0 1-4.16 10.12l-.01-.03z" fill="#FFCE1B"/></svg>