<svg width="65" height="22" viewBox="0 0 65 22" fill="none" xmlns="http://www.w3.org/2000/svg"><path d="M63.71 13.46a5.789 5.789 0 0 0-3.77-3.85 53.588 53.588 0 0 0-8.69-2.55c-2.32-.44-3.7-.66-4.57-.8a4.57 4.57 0 0 1-1.3-.22c-.37-.15-2.76-1.38-4.93-2.55a44.594 44.594 0 0 0-5.8-2.33C27.77-.8 21.75-.22 14 3a50.277 50.277 0 0 1-5.87 2.19c-.2.013-.396.06-.58.14-.44.15-1.74.22-2.75.37-2 .14-2.54.21-2.9.51-.36.3-.94.65-.58 8.87a2.68 2.68 0 0 0-1 1.82c-.29 3.5 1.16 4.51 2.47 4.8.663.086 1.332.113 2 .08h56.38a.62.62 0 0 0 .37-.08 3.68 3.68 0 0 0 1.88-1.81 9.7 9.7 0 0 0 .29-6.43zM15 7.93a.49.49 0 0 1-.2-.93 33.7 33.7 0 0 1 8.84-2.62l.87 3.93L15 7.93zm24.64 1L26.9 8.44 26 4.15h.94c5.07 0 10.36 2.4 13 3.78A.555.555 0 0 1 39.65 9l-.01-.07zM59 11c3 0 4 2 4 3-3 0-4-3-4-3z" fill="#FFCE1B"/></svg>