<svg width="46" height="60" viewBox="0 0 46 60" fill="none" xmlns="http://www.w3.org/2000/svg"><path fill-rule="evenodd" clip-rule="evenodd" d="M43.72 0H1.8A1.41 1.41 0 0 0 .39 1.41v57.18A1.41 1.41 0 0 0 1.8 60h42.38a1.43 1.43 0 0 0 1.43-1.43V1.88A1.88 1.88 0 0 0 43.72 0zM16.44 44.07l-4.81 4.69a1.41 1.41 0 0 1-2 0l-2.14-2.09a1.44 1.44 0 0 1 0-2 1.401 1.401 0 0 1 2 0l1.15 1.12L14.47 42a1.411 1.411 0 0 1 2 0 1.44 1.44 0 0 1-.03 2.07zM7.85 31.84a1.44 1.44 0 0 1 0-2 1.42 1.42 0 0 1 2 0l1.42 1.39 1.42-1.39a1.42 1.42 0 0 1 2 0 1.44 1.44 0 0 1 0 2l-1.34 1.31 1.34 1.31a1.44 1.44 0 0 1 0 2 1.42 1.42 0 0 1-2 0l-1.42-1.39-1.42 1.39a1.42 1.42 0 0 1-2 0 1.44 1.44 0 0 1 0-2l1.34-1.31-1.34-1.31zm8.59-13.67l-4.81 4.69a1.409 1.409 0 0 1-2 0l-2.14-2.09a1.44 1.44 0 0 1 0-2 1.401 1.401 0 0 1 2 0l1.15 1.12 3.82-3.73a1.411 1.411 0 0 1 2 0 1.44 1.44 0 0 1-.02 2.01zm19.63 29.49h-15a1.43 1.43 0 1 1 0-2.86h15a1.43 1.43 0 0 1 0 2.86zm0-13.36h-15a1.43 1.43 0 1 1 0-2.86h15a1.43 1.43 0 0 1 0 2.86zm0-12.56h-15a1.43 1.43 0 0 1 0-2.85h15a1.43 1.43 0 0 1 0 2.85z" fill="#FFCE1B"/></svg>